<svg xmlns="http://www.w3.org/2000/svg" width="512" height="512" viewBox="0 0 512 512" role="img" aria-label="Attachment breaker icon" color="#000000">
  <title>Attachment breaker icon</title>
  <path fill="currentColor" fill-rule="evenodd" d="M229 52 L219 56 L212 64 L210 71 L209 86 L189 87 L182 90 L173 98 L167 110 L166 121 L171 135 L196 173 L253 268 L253 323 L258 329 L262 331 L271 332 L272 346 L276 352 L287 354 L287 430 L298 459 L302 459 L314 430 L315 353 L324 352 L328 347 L330 331 L337 331 L341 329 L346 323 L346 97 L342 90 L337 87 L320 85 L321 72 L319 64 L311 55 L302 52 Z
    M185 95 L192 92 L334 92 L339 96 L340 98 L340 322 L336 325 L263 325 L259 322 L258 320 L258 265 L257 262 L245 244 L200 168 L175 130 L172 119 L173 110 L178 101 Z
    M267 133 L258 138 L256 142 L256 207 L258 212 L265 217 L289 217 L296 211 L298 206 L298 143 L297 140 L292 135 L287 133 Z
    M216 71 L220 63 L226 59 L305 59 L312 64 L315 70 L314 86 L216 85 Z
    M266 139 L287 139 L292 144 L292 207 L287 211 L267 211 L262 207 L262 143 Z
    M294 353 L308 354 L308 429 L300 445 L293 430 Z
    M196 103 L191 105 L186 111 L185 123 L186 126 L191 131 L198 134 L202 134 L208 132 L215 124 L215 113 L209 105 L205 103 Z
    M276 332 L324 332 L323 343 L321 347 L278 346 Z
    M314 103 L305 110 L305 121 L311 127 L320 128 L323 127 L328 122 L329 111 L324 105 L320 103 Z
    M196 109 L204 109 L209 114 L209 122 L203 128 L198 128 L194 126 L190 120 L191 114 Z
    M314 109 L319 109 L323 112 L323 119 L318 123 L314 122 L310 117 L310 114 Z
    M318 300 L315 303 L315 309 L318 312 L323 312 L326 309 L327 305 L323 300 Z
    M277 300 L274 302 L273 309 L276 312 L281 312 L285 308 L285 304 L281 300 Z
    M278 274 L273 278 L273 282 L277 286 L280 286 L285 282 L285 278 L282 275 Z
    M319 274 L315 277 L316 284 L319 286 L322 286 L326 283 L327 280 L324 275 Z"/>
</svg>
