<svg xmlns="http://www.w3.org/2000/svg" width="512" height="512" viewBox="0 0 512 512" role="img" aria-label="Attachment bucket icon" color="#000000">
  <title>Attachment bucket icon</title>
  <path fill="currentColor" fill-rule="evenodd" d="M421 156 L413 148 L399 139 L342 93 L339 93 L327 86 L319 85 L296 77 L285 78 L272 85 L268 89 L262 101 L253 131 L230 188 L222 202 L222 206 L188 270 L153 325 L123 365 L86 366 L68 373 L54 385 L52 389 L54 391 L82 395 L77 397 L66 408 L66 411 L98 415 L86 422 L78 430 L79 434 L309 434 L341 426 L390 401 L410 388 L427 372 L444 348 L444 345 L452 330 L459 302 L459 261 L456 248 L444 213 L444 208 L437 191 L435 180 L429 170 L429 167 Z
    M403 148 L419 163 L429 181 L431 192 L437 206 L437 211 L445 232 L446 240 L453 261 L454 286 L452 308 L445 330 L430 357 L411 378 L397 389 L344 418 L326 424 L306 428 L181 426 L204 395 L205 391 L229 357 L266 293 L267 288 L282 261 L282 257 L290 243 L298 221 L305 208 L314 179 L321 163 L321 159 L329 141 L342 132 L357 131 L379 139 L387 140 Z
    M275 100 L321 146 L315 159 L305 191 L299 203 L299 207 L291 223 L289 231 L283 241 L283 245 L251 309 L218 364 L133 363 L181 294 L183 288 L190 279 L192 273 L204 254 L205 249 L207 248 L220 224 L221 219 L236 190 L236 186 L252 152 L252 148 L257 138 L269 101 L271 99 Z
    M275 92 L283 85 L299 84 L328 93 L344 101 L355 112 L379 131 L376 132 L355 125 L345 125 L330 132 L323 139 Z
    M279 122 L274 122 L268 140 L254 171 L253 177 L227 232 L205 272 L199 280 L197 286 L193 290 L167 332 L164 334 L154 349 L156 354 L159 353 L190 309 L191 305 L205 285 L205 282 L227 246 L236 228 L236 225 L252 195 L252 192 L267 160 L267 156 L272 147 L280 124 Z
    M334 177 L329 179 L322 197 L322 201 L316 212 L313 223 L307 233 L307 237 L281 291 L276 298 L276 301 L253 341 L246 350 L244 356 L210 404 L210 408 L213 410 L221 401 L222 397 L225 395 L251 356 L253 350 L266 331 L290 287 L290 284 L298 271 L298 268 L313 238 L313 234 L319 224 L322 213 L329 199 L329 194 L335 182 Z
    M152 372 L211 373 L190 404 L183 411 Z
    M90 427 L99 420 L114 414 L126 412 L155 412 L165 428 Z
    M66 384 L70 380 L88 372 L124 372 L129 377 L133 386 Z
    M79 403 L91 396 L105 392 L141 393 L149 403 L149 406 Z
    M133 372 L143 371 L153 382 L156 388 L160 391 L160 393 L179 416 L176 423 L173 425 L143 385 L136 378 Z
    M302 91 L303 95 L331 123 L336 123 L336 118 L306 89 Z"/>
</svg>
